<?xml version="1.0" encoding="iso-8859-1"?>
<!-- Generator: Adobe Illustrator 16.0.0, SVG Export Plug-In . SVG Version: 6.00 Build 0)  -->
<!DOCTYPE svg PUBLIC "-//W3C//DTD SVG 1.1//EN" "http://www.w3.org/Graphics/SVG/1.1/DTD/svg11.dtd">
<svg version="1.1" id="Capa_1" xmlns="http://www.w3.org/2000/svg" xmlns:xlink="http://www.w3.org/1999/xlink" x="0px" y="0px"
	 width="588.172px" height="588.172px" viewBox="0 0 588.172 588.172" style="enable-background:new 0 0 588.172 588.172; fill: #FFFFFF;"
	 xml:space="preserve">
<g>
	<g>
		<path d="M21.86,408.172c12.253,12.254,28.544,19.002,45.871,19.002c1.15,0,2.295-0.033,3.435-0.092l37.136,13.344l399.993,143.719
			c6.512,2.34,13.287,3.527,20.135,3.527c19.217,0,37.336-9.449,48.465-25.275c5.277-7.502,8.781-16.238,10.133-25.264
			c1.439-9.619,0.445-19.592-2.879-28.842L440.43,108.297l-13.342-37.135c0.059-1.14,0.09-2.286,0.09-3.436
			c0-17.328-6.748-33.619-19.002-45.872l-2.354-2.354c-12.252-12.253-28.543-19-45.871-19s-33.619,6.748-45.871,19L19.505,314.076
			C7.252,326.328,0.504,342.619,0.504,359.947s6.748,33.617,19.001,45.871L21.86,408.172z M543.834,522.777
			c4.018,11.186-4.633,22.055-15.402,22.055c-1.84,0-3.74-0.318-5.648-1.004L122.788,400.109l277.326-277.326L543.834,522.777z
			 M49.797,344.367L344.373,49.793c4.301-4.302,9.939-6.453,15.578-6.453s11.277,2.151,15.578,6.453l2.355,2.355
			c8.605,8.604,8.605,22.554,0,31.158L83.31,377.881c-4.302,4.301-9.94,6.453-15.579,6.453c-5.638,0-11.277-2.152-15.579-6.453
			l-2.355-2.355C41.193,366.922,41.193,352.973,49.797,344.367z"/>
		<path d="M528.43,588.172c-6.904,0-13.735-1.196-20.304-3.557L71.091,427.586c-1.159,0.059-2.289,0.088-3.36,0.088
			c-17.461,0-33.877-6.801-46.225-19.148l-2.354-2.354C6.804,393.823,0.004,377.407,0.004,359.947
			c0-17.462,6.8-33.878,19.147-46.225L313.727,19.147C326.072,6.8,342.489,0,359.951,0s33.879,6.8,46.225,19.147l2.354,2.354
			c12.348,12.347,19.148,28.764,19.148,46.226c0,1.096-0.028,2.227-0.085,3.361l157.026,437.034
			c3.351,9.324,4.354,19.382,2.902,29.085c-1.362,9.103-4.896,17.912-10.218,25.478C566.081,578.644,547.811,588.172,528.43,588.172
			z M71.241,426.577l0.094,0.034l437.129,157.062c6.459,2.321,13.177,3.498,19.966,3.498c19.056,0,37.021-9.369,48.056-25.063
			c5.233-7.438,8.707-16.101,10.048-25.05c1.427-9.54,0.44-19.429-2.855-28.599L426.583,71.237l0.006-0.101
			c0.059-1.151,0.089-2.298,0.089-3.41c0-17.195-6.696-33.36-18.855-45.519l-2.354-2.354C393.312,7.696,377.146,1,359.951,1
			s-33.36,6.696-45.518,18.854L19.858,314.43C7.7,326.587,1.004,342.752,1.004,359.947c0,17.193,6.696,33.358,18.855,45.518
			l2.354,2.354c12.159,12.159,28.324,18.855,45.518,18.855c1.085,0,2.232-0.03,3.409-0.091L71.241,426.577z M528.432,545.332
			c-1.952,0-3.909-0.348-5.817-1.033L121.876,400.313l278.441-278.441l143.987,400.736c1.894,5.271,1.149,10.896-2.042,15.434
			C539.052,542.606,533.882,545.332,528.432,545.332z M123.699,399.905l399.253,143.452c1.8,0.646,3.644,0.975,5.479,0.975
			c5.125,0,9.989-2.566,13.013-6.865c3.002-4.268,3.701-9.56,1.919-14.521L399.909,123.695L123.699,399.905z M67.731,384.834
			c-6.017,0-11.675-2.344-15.932-6.6l-2.355-2.355c-8.785-8.784-8.785-23.079,0-31.865L344.02,49.44
			c4.255-4.256,9.913-6.6,15.932-6.6s11.677,2.344,15.932,6.6l2.355,2.355c4.257,4.256,6.601,9.914,6.601,15.933
			s-2.344,11.677-6.601,15.932L83.664,378.234C79.407,382.49,73.749,384.834,67.731,384.834z M359.951,43.84
			c-5.752,0-11.158,2.24-15.225,6.307L50.151,344.721c-8.396,8.396-8.396,22.057,0,30.451l2.355,2.355
			c4.068,4.067,9.475,6.307,15.225,6.307c5.75,0,11.158-2.239,15.226-6.307L377.531,82.953c4.067-4.067,6.308-9.474,6.308-15.225
			s-2.24-11.159-6.308-15.226l-2.355-2.355C371.109,46.08,365.703,43.84,359.951,43.84z"/>
	</g>
	<g>
		<path d="M269.015,311.648c-31.681,0-57.456,25.775-57.456,57.457s25.775,57.457,57.456,57.457
			c31.682,0,57.458-25.775,57.458-57.457S300.697,311.648,269.015,311.648z M269.015,383.721c-8.072,0-14.616-6.543-14.616-14.615
			s6.544-14.617,14.616-14.617s14.617,6.545,14.617,14.617S277.087,383.721,269.015,383.721z"/>
		<path d="M269.015,427.062c-31.957,0-57.956-25.999-57.956-57.957s25.999-57.957,57.956-57.957
			c31.958,0,57.958,25.999,57.958,57.957S300.973,427.062,269.015,427.062z M269.015,312.148c-31.406,0-56.956,25.551-56.956,56.957
			s25.55,56.957,56.956,56.957c31.407,0,56.958-25.551,56.958-56.957S300.422,312.148,269.015,312.148z M269.015,384.221
			c-8.335,0-15.116-6.78-15.116-15.115c0-8.336,6.781-15.117,15.116-15.117c8.335,0,15.117,6.781,15.117,15.117
			C284.132,377.44,277.351,384.221,269.015,384.221z M269.015,354.988c-7.784,0-14.116,6.333-14.116,14.117
			c0,7.783,6.333,14.115,14.116,14.115c7.784,0,14.117-6.332,14.117-14.115C283.132,361.321,276.799,354.988,269.015,354.988z"/>
	</g>
	<g>
		<path d="M310.213,269.009c0,31.991,26.027,58.019,58.02,58.019S426.25,301,426.25,269.009c0-31.992-26.025-58.019-58.018-58.019
			S310.213,237.017,310.213,269.009z M383.41,269.009c0,8.383-6.795,15.179-15.178,15.179s-15.18-6.795-15.18-15.179
			s6.797-15.179,15.18-15.179S383.41,260.625,383.41,269.009z"/>
		<path d="M368.232,327.527c-32.268,0-58.52-26.251-58.52-58.519s26.252-58.519,58.52-58.519c32.267,0,58.518,26.251,58.518,58.519
			S400.499,327.527,368.232,327.527z M368.232,211.49c-31.717,0-57.52,25.803-57.52,57.519c0,31.716,25.803,57.519,57.52,57.519
			c31.715,0,57.518-25.803,57.518-57.519C425.75,237.292,399.947,211.49,368.232,211.49z M368.232,284.688
			c-8.646,0-15.68-7.034-15.68-15.679s7.034-15.679,15.68-15.679c8.645,0,15.678,7.034,15.678,15.679
			S376.877,284.688,368.232,284.688z M368.232,254.33c-8.095,0-14.68,6.585-14.68,14.679s6.585,14.679,14.68,14.679
			c8.094,0,14.678-6.585,14.678-14.679S376.326,254.33,368.232,254.33z"/>
	</g>
	<g>
		<path d="M359.744,413.262c0,31.473,25.605,57.078,57.08,57.078c31.473,0,57.078-25.605,57.078-57.078
			c0-31.475-25.605-57.08-57.078-57.08C385.35,356.182,359.744,381.787,359.744,413.262z M431.062,413.262
			c0,7.863-6.375,14.238-14.24,14.238c-7.863,0-14.238-6.375-14.238-14.238c0-7.865,6.375-14.24,14.238-14.24
			C424.688,399.021,431.062,405.396,431.062,413.262z"/>
		<path d="M416.824,470.84c-31.75,0-57.58-25.829-57.58-57.578c0-31.75,25.83-57.58,57.58-57.58c31.749,0,57.578,25.83,57.578,57.58
			C474.402,445.011,448.573,470.84,416.824,470.84z M416.824,356.682c-31.198,0-56.58,25.382-56.58,56.58
			c0,31.197,25.382,56.578,56.58,56.578c31.197,0,56.578-25.381,56.578-56.578C473.402,382.063,448.021,356.682,416.824,356.682z
			 M416.822,428c-8.127,0-14.738-6.611-14.738-14.738c0-8.128,6.611-14.74,14.738-14.74c8.128,0,14.74,6.612,14.74,14.74
			C431.562,421.389,424.95,428,416.822,428z M416.822,399.521c-7.575,0-13.738,6.164-13.738,13.74
			c0,7.575,6.163,13.738,13.738,13.738c7.576,0,13.74-6.163,13.74-13.738C430.562,405.686,424.398,399.521,416.822,399.521z"/>
	</g>
</g>
<g>
</g>
<g>
</g>
<g>
</g>
<g>
</g>
<g>
</g>
<g>
</g>
<g>
</g>
<g>
</g>
<g>
</g>
<g>
</g>
<g>
</g>
<g>
</g>
<g>
</g>
<g>
</g>
<g>
</g>
</svg>
